<svg width="57" height="58" viewBox="0 0 57 58" fill="none" xmlns="http://www.w3.org/2000/svg">
<path d="M56.4802 29.469C56.4802 27.4257 56.2968 25.461 55.9562 23.5748H28.8167V34.7214H44.325C43.657 38.3235 41.6267 41.3754 38.5749 43.4187V50.6489H47.8877C53.3366 45.6323 56.4802 38.2449 56.4802 29.469Z" fill="#4285F4"/>
<path d="M28.8184 57.633C36.5988 57.633 43.1217 55.0526 47.8895 50.6516L38.5766 43.4214C35.9963 45.1503 32.6955 46.172 28.8184 46.172C21.3131 46.172 14.9605 41.103 12.6945 34.2919H3.06726V41.7579C7.80883 51.1755 17.5539 57.633 28.8184 57.633Z" fill="#34A853"/>
<path d="M12.6922 34.2919C12.1159 32.5629 11.7884 30.7161 11.7884 28.8168C11.7884 26.9176 12.1159 25.0707 12.6922 23.3417V15.8757H3.06499C1.04786 19.8913 -0.00177776 24.3231 2.2602e-06 28.8168C2.2602e-06 33.4667 1.11335 37.8677 3.06499 41.7579L12.6922 34.2919Z" fill="#FBBC05"/>
<path d="M28.8184 11.461C33.0492 11.461 36.8477 12.9149 39.8341 15.7703L48.0991 7.5053C43.1086 2.85542 36.5857 0 28.8184 0C17.5539 0 7.80883 6.45744 3.06726 15.8751L12.6945 23.3411C14.9605 16.53 21.3131 11.461 28.8184 11.461Z" fill="#EA4335"/>
</svg>
